#!OML:ASF F:\VICON\USERDATA\INSTALL\rory3\rory3.ASF
:FULLY-SPECIFIED
:DEGREES
241
root 0.443091 17.6963 18.0495 -0.527131 -3.52974 -6.22413
lowerback 9.83676 1.9446 5.96894
upperback 0.0610305 3.3669 1.84267
thorax -5.22774 1.52821 -1.89414
lowerneck -16.3112 -2.80985 -1.1709
upperneck 21.5863 -3.49601 -0.445677
head 9.5265 -1.77153 -0.409661
rclavicle 5.81973e-014 2.32081e-014
rhumerus -19.6862 -12.7075 -79.1497
rradius 33.2616
rwrist -0.629925
rhand -19.8759 23.3035
rfingers 7.12502
rthumb 6.45958 -6.57801
lclavicle 5.81973e-014 2.32081e-014
lhumerus -37.7363 12.0008 79.4806
lradius 23.4426
lwrist 5.21226
lhand -30.1186 15.1095
lfingers 7.12502
lthumb -3.43197 45.0616
rfemur 9.44626 6.1922 33.7566
rtibia 29.4949
rfoot -18.4899 -9.34219
rtoes -12.7692
lfemur -25.3829 -4.0636 -13.0148
ltibia 17.5417
lfoot -2.47939 2.41544
ltoes -6.08386
242
root 0.465291 17.7149 18.2684 -0.60119 -3.46428 -5.80083
lowerback 9.53943 1.94704 5.64575
upperback 0.0663365 3.30465 1.72352
thorax -5.06947 1.50972 -1.81719
lowerneck -15.9908 -2.81399 -0.966687
upperneck 21.4277 -3.47646 -0.790207
head 9.40019 -1.78629 -0.552277
rclavicle -1.88286e-014 -6.80837e-015
rhumerus -19.7937 -13.4831 -79.0076
rradius 32.8948
rwrist -0.219087
rhand -19.8356 23.2286
rfingers 7.12502
rthumb 6.49853 -6.65174
lclavicle -1.88286e-014 -6.80837e-015
lhumerus -37.8621 12.5121 79.1729
lradius 23.0853
lwrist 4.06209
lhand -29.0927 17.4584
lfingers 7.12502
lthumb -2.44122 47.4242
rfemur 9.67548 5.88811 33.1171
rtibia 30.4059
rfoot -17.8518 -8.79811
rtoes -13.6074
lfemur -25.3901 -4.2535 -13.5744
ltibia 18.4293
lfoot -1.27451 1.11995
ltoes -4.38614
243
root 0.481801 17.7438 18.4864 -0.865265 -3.55249 -5.00325
lowerback 9.47371 2.09245 4.8583
upperback 0.106903 3.39329 1.49342
thorax -5.01311 1.57274 -1.62617
lowerneck -15.9077 -2.9467 -0.980041
upperneck 21.6488 -3.67769 -0.718699
head 9.46383 -1.8725 -0.552427
rclavicle -2.31305e-014 -9.64106e-015
rhumerus -20.041 -14.5039 -78.815
rradius 32.4719
rwrist 0.187656
rhand -19.9361 23.4355
rfingers 7.12502
rthumb 6.40152 -6.44775
lclavicle -2.31305e-014 -9.64106e-015
lhumerus -37.752 12.9352 78.9157
lradius 22.3675
lwrist 3.20586
lhand -28.3144 19.9467
lfingers 7.12502
lthumb -1.68954 49.9198
rfemur 9.94032 5.67255 32.0811
rtibia 31.508
rfoot -17.0092 -8.09787
rtoes -13.7348
lfemur -24.9704 -4.25846 -14.6039
ltibia 19.1911
lfoot -0.9037 0.298788
ltoes -6.37951
244
root 0.487801 17.7642 18.6958 -1.21206 -3.59277 -4.49905
lowerback 9.59101 2.1407 4.2104
upperback 0.173784 3.38554 1.39253
thorax -5.03927 1.58385 -1.37317
lowerneck -15.7546 -2.96796 -1.00709
upperneck 21.6809 -3.7192 -0.650391
head 9.44864 -1.88667 -0.527402
rclavicle 1.01598e-014 3.03147e-015
rhumerus -20.3889 -14.8677 -78.7643
rradius 32.3546
rwrist 0.153355
rhand -20.1096 23.6996
rfingers 7.12502
rthumb 6.23405 -6.18862
lclavicle 1.01598e-014 3.03147e-015
lhumerus -37.6037 13.0691 78.8184
lradius 21.5813
lwrist 3.4905
lhand -28.5604 19.2549
lfingers 7.12502
lthumb -1.92719 49.226
rfemur 10.0602 5.71795 31.5965
rtibia 32.9623
rfoot -15.6432 -7.68817
rtoes -11.9983
lfemur -24.287 -4.05506 -15.3286
ltibia 19.6668
lfoot -0.349698 -0.435039
ltoes -6.71098
245
root 0.500607 17.7779 18.9018 -1.47482 -3.39936 -4.49695
lowerback 9.73826 2.07984 4.22803
upperback 0.157846 3.31559 1.39229
thorax -5.14136 1.5462 -1.38119
lowerneck -15.5983 -2.99345 -1.08728
upperneck 21.6415 -3.75584 -0.567511
head 9.40945 -1.90159 -0.486993
rclavicle -3.54613e-014 -7.55382e-015
rhumerus -20.8348 -15.3715 -78.6354
rradius 32.0931
rwrist 0.314209
rhand -20.3824 24.4608
rfingers 7.12502
rthumb 5.97062 -5.43506
lclavicle -3.54613e-014 -7.55382e-015
lhumerus -37.7511 13.2974 78.5591
lradius 21.1736
lwrist 3.15445
lhand -28.9625 18.7846
lfingers 7.12502
lthumb -2.31551 48.7518
rfemur 9.94569 5.3336 31.5549
rtibia 34.6878
rfoot -13.9799 -7.33808
rtoes -9.92737
lfemur -23.7535 -3.99603 -15.5067
ltibia 20.1541
lfoot 0.550451 -1.51693
ltoes -5.72011
246
root 0.517166 17.7916 19.1095 -1.57278 -3.21345 -4.0483
lowerback 9.83725 2.08661 3.84524
upperback -0.0134748 3.28694 1.26834
thorax -5.39214 1.53281 -1.30179
lowerneck -15.5301 -3.03005 -1.233
upperneck 21.943 -3.79355 -0.479846
head 9.50771 -1.92055 -0.440046
rclavicle 1.04859e-014 2.38542e-015
rhumerus -21.5611 -15.935 -78.3552
rradius 31.9061
rwrist 0.267022
rhand -20.5029 24.8895
rfingers 7.12502
rthumb 5.85427 -5.00961
lclavicle 1.04859e-014 2.38542e-015
lhumerus -37.9952 13.4046 78.4263
lradius 20.7145
lwrist 3.23543
lhand -30.138 17.796
lfingers 7.12502
lthumb -3.45074 47.7478
rfemur 9.41448 4.73388 30.8012
rtibia 36.6451
rfoot -12.0486 -6.73909
rtoes -11.0187
lfemur -23.4784 -3.95549 -16.1709
ltibia 20.8742
lfoot 1.29512 -2.38508
ltoes -4.03654
247
root 0.5374 17.806 19.3211 -1.73856 -2.97046 -3.59011
lowerback 9.87657 2.03907 3.54922
upperback -0.141849 3.18605 1.08322
thorax -5.559 1.48391 -1.32059
lowerneck -15.1791 -3.04105 -1.28721
upperneck 22.0465 -3.83256 -0.351964
head 9.4826 -1.92971 -0.386916
rclavicle -1.25467e-014 5.96354e-016
rhumerus -22.4714 -16.395 -78.1995
rradius 32.0359
rwrist 0.0721128
rhand -20.4008 24.6308
rfingers 7.12502
rthumb 5.9529 -5.2656
lclavicle -1.25467e-014 5.96354e-016
lhumerus -38.1038 13.2801 78.3087
lradius 20.2045
lwrist 3.69601
lhand -30.6275 16.2911
lfingers 7.12502
lthumb -3.92342 46.2347
rfemur 8.78239 4.07811 29.9678
rtibia 38.7311
rfoot -9.82783 -6.01469
rtoes -10.7645
lfemur -23.0029 -3.48938 -17.0532
ltibia 21.6293
lfoot 1.13643 -3.09108
ltoes -5.31984
248
root 0.564018 17.8226 19.5362 -1.84482 -2.72113 -3.25424
lowerback 9.59225 1.99741 3.40483
upperback -0.148516 3.09422 0.95253
thorax -5.40992 1.44436 -1.35129
lowerneck -14.9429 -3.06022 -1.23515
upperneck 22.0535 -3.874 -0.361488
head 9.43964 -1.94658 -0.399816
rclavicle 3.03985e-014 9.93923e-017
rhumerus -23.039 -17.0512 -77.9912
rradius 31.7883
rwrist 0.180523
rhand -20.496 24.4146
rfingers 7.12502
rthumb 5.86095 -5.48437
lclavicle 3.03985e-014 9.93923e-017
lhumerus -38.1816 13.5193 78.0336
lradius 19.845
lwrist 3.49186
lhand -30.1129 16.6611
lfingers 7.12502
lthumb -3.4265 46.6133
rfemur 8.01108 3.38407 29.1784
rtibia 40.9113
rfoot -7.18928 -5.36164
rtoes -6.77032
lfemur -22.5049 -3.01483 -17.8401
ltibia 22.3181
lfoot 0.708455 -3.25044
ltoes -9.03145
249
root 0.590888 17.844 19.7482 -1.85411 -2.73068 -3.12297
lowerback 9.1833 2.02331 3.41233
upperback -0.053546 3.10622 0.91348
thorax -5.07673 1.45779 -1.37753
lowerneck -15.1979 -3.01431 -1.1367
upperneck 22.1925 -3.80076 -0.49071
head 9.53073 -1.91743 -0.457724
rclavicle 1.35422e-015 -1.27222e-014
rhumerus -23.3239 -17.9923 -77.7823
rradius 31.3767
rwrist 0.574593
rhand -20.621 24.5497
rfingers 7.12502
rthumb 5.74032 -5.35257
lclavicle 1.35422e-015 -1.27222e-014
lhumerus -38.0458 13.9885 77.8383
lradius 19.5746
lwrist 3.24364
lhand -30.3925 17.5259
lfingers 7.12502
lthumb -3.69649 47.4736
rfemur 6.92929 2.90437 28.6291
rtibia 43.1588
rfoot -4.264 -4.7227
rtoes -2.42136
lfemur -22.2182 -2.70722 -18.2043
ltibia 23.0128
lfoot 0.541793 -3.27087
ltoes -8.50724
250
root 0.613818 17.8663 19.947 -1.87522 -2.84114 -3.24573
lowerback 9.1041 2.04205 3.66812
upperback 0.0104495 3.15333 0.930226
thorax -4.95044 1.47821 -1.50376
lowerneck -15.8472 -3.025 -1.10144
upperneck 22.5653 -3.78273 -0.636163
head 9.7803 -1.9194 -0.528208
rclavicle -5.97131e-015 6.95746e-016
rhumerus -23.6489 -18.6827 -77.678
rradius 31.1842
rwrist 0.757309
rhand -20.5899 24.632
rfingers 7.12502
rthumb 5.77027 -5.26946
lclavicle -5.97131e-015 6.95746e-016
lhumerus -37.7585 14.6077 77.4915
lradius 19.2623
lwrist 2.46684
lhand -30.1284 17.3872
lfingers 7.12502
lthumb -3.44142 47.3391
rfemur 5.71545 2.53642 28.425
rtibia 45.4584
rfoot -1.61928 -4.04779
rtoes 1.69645
lfemur -21.8845 -2.57279 -18.2055
ltibia 23.6227
lfoot 0.256937 -3.53569
ltoes -2.91529
